# xmcd
#
# Track frame offsets:
#	150
#	20932
#	37428
#	59860
#	79308
#	104064
#	121931
#	159314
#	184601
#	202118
#	239716
#	263631
#	286902
#
# Disc length: 4405 seconds
#
# Revision: 1
# Processed by: cddbd v1.5.2PL0 Copyright (c) Steve Scherf et al.
# Submitted via: audiograbber 1.83.01
#
DISCID=ce11330d
DTITLE=Whiskey Myers - Road Of Life
DYEAR=2008
DGENRE=Country
TTITLE0=Thief of Hearts
TTITLE1=Kyle Hope
TTITLE2=Gone Away
TTITLE3=Lonely East TX Nights
TTITLE4=Hippie's Lament
TTITLE5=Road of Life
TTITLE6=Melancholy Blues
TTITLE7=Goodbye Girl
TTITLE8=Summer 2005
TTITLE9=American Outlaws
TTITLE10=Nobody Knows Her Name
TTITLE11=Russell's Song
TTITLE12=Tya
EXTD=
EXTT0=
EXTT1=
EXTT2=
EXTT3=
EXTT4=
EXTT5=
EXTT6=
EXTT7=
EXTT8=
EXTT9=
EXTT10=
EXTT11=
EXTT12=
PLAYORDER=
